<?xml version="1.0" encoding="UTF-8" standalone="no"?>
<!DOCTYPE svg PUBLIC "-//W3C//DTD SVG 1.1//EN" "http://www.w3.org/Graphics/SVG/1.1/DTD/svg11.dtd">
<svg width="100%" height="100%" viewBox="0 0 50 50" version="1.1" xmlns="http://www.w3.org/2000/svg" xmlns:xlink="http://www.w3.org/1999/xlink" xml:space="preserve" xmlns:serif="http://www.serif.com/" style="fill-rule:evenodd;clip-rule:evenodd;stroke-linejoin:round;stroke-miterlimit:2;">
    <g transform="matrix(1.99991,1.47911e-31,-2.46519e-32,1.99991,-69.9957,-95.9946)">
        <g id="down">
            <path id="Download" d="M48.462,53.069L52.744,53.069C55.094,53.069 57,54.968 57,57.31L57,67.759C57,70.101 55.094,72 52.744,72L42.257,72C39.906,72 38,70.101 38,67.759L38,57.31C38,54.968 39.906,53.069 42.257,53.069L46.539,53.069L46.539,49.924C46.539,49.414 46.956,49 47.467,49L47.534,49C48.046,49 48.462,49.414 48.462,49.924L48.462,53.069ZM48.405,53.071L46.595,53.071L46.595,53.072L46.539,53.072L46.539,64.532L44.026,62.246C43.655,61.908 43.068,61.925 42.719,62.286C42.55,62.46 42.461,62.689 42.468,62.929C42.475,63.17 42.579,63.394 42.76,63.559L46.851,67.281C47.016,67.431 47.234,67.516 47.475,67.521L47.502,67.523L47.534,67.521C47.766,67.516 47.984,67.431 48.15,67.281L52.241,63.559C52.421,63.394 52.526,63.17 52.533,62.929C52.54,62.689 52.451,62.46 52.282,62.286C51.933,61.925 51.345,61.907 50.974,62.246L48.462,64.532L48.462,53.072L48.405,53.072L48.405,53.071Z" style="fill:white;"/>
        </g>
    </g>
</svg>
