<?xml version="1.0" encoding="UTF-8" standalone="no"?>
<!DOCTYPE svg PUBLIC "-//W3C//DTD SVG 1.1//EN" "http://www.w3.org/Graphics/SVG/1.1/DTD/svg11.dtd">
<svg width="100%" height="100%" viewBox="0 0 50 50" version="1.1" xmlns="http://www.w3.org/2000/svg" xmlns:xlink="http://www.w3.org/1999/xlink" xml:space="preserve" xmlns:serif="http://www.serif.com/" style="fill-rule:evenodd;clip-rule:evenodd;stroke-linecap:round;stroke-linejoin:round;stroke-miterlimit:1.5;">
    <g id="home" transform="matrix(0.963507,0,0,0.963507,0.912314,1.56961)">
        <path d="M8.709,23.699L6.786,25.402C6.29,25.842 5.639,26.066 4.978,26.026C4.316,25.986 3.697,25.684 3.257,25.188C2.839,24.715 2.389,24.207 1.97,23.734C1.054,22.7 1.15,21.12 2.184,20.205C6.846,16.076 18.917,5.386 23.343,1.467C24.289,0.629 25.711,0.629 26.657,1.467C31.083,5.386 43.154,16.076 47.816,20.205C48.85,21.12 48.946,22.7 48.03,23.734C47.611,24.207 47.161,24.715 46.743,25.188C46.303,25.684 45.684,25.986 45.022,26.026C44.361,26.066 43.71,25.842 43.214,25.402L41.291,23.699L41.291,40.37C41.291,43.135 39.049,45.376 36.285,45.376L29.879,45.376L29.879,31.859C29.879,30.479 28.76,29.359 27.379,29.359C25.852,29.359 23.906,29.359 22.379,29.359C20.998,29.359 19.879,30.479 19.879,31.859L19.879,45.376L13.715,45.376C10.951,45.376 8.709,43.135 8.709,40.37L8.709,23.699ZM24.856,15.796C27.089,15.796 28.902,17.608 28.902,19.841C28.902,22.074 27.089,23.887 24.856,23.887C22.623,23.887 20.81,22.074 20.81,19.841C20.81,17.608 22.623,15.796 24.856,15.796Z" style="fill:none;stroke:white;stroke-width:3.53px;"/>
    </g>
</svg>
